<?xml version="1.0" encoding="iso-8859-1"?>
<!-- Generator: Adobe Illustrator 19.0.0, SVG Export Plug-In . SVG Version: 6.00 Build 0)  -->
<svg version="1.1" id="Capa_1" xmlns="http://www.w3.org/2000/svg" xmlns:xlink="http://www.w3.org/1999/xlink" x="0px" y="0px"
	 viewBox="0 0 512 512" style="enable-background:new 0 0 512 512;" xml:space="preserve">
<g>
	<g>
		<path d="M403.671,271c0,82.767-67.232,150-150,150s-150-67.234-150-150c0-82.768,67.235-150,150-150
			c25.299,0,49.853,6.346,71.87,18.471L267.018,211h231.311L440.514,0l-57.36,69.166C344.372,44.152,299.895,31,253.671,31
			c-64.106,0-124.375,24.964-169.705,70.293c-45.33,45.33-70.295,105.6-70.295,169.707c0,137.205,113.364,241,240,241
			c63.462,0,123.73-25.32,169.705-71.295c45.33-45.331,70.295-105.6,70.295-169.705v-15h-90V271z M463.147,286
			c-7.868,112.242-102.975,196-209.476,196c-111.272,0-210-91.447-210-211c0-56.093,21.844-108.83,61.508-148.494
			C144.843,82.843,197.579,61,253.671,61c44.532,0,87.227,13.974,123.467,40.41l11.405,8.32l38.285-46.311L459.014,181H330.325
			l39.474-48.245C353.682,121.484,315.871,91,253.671,91c-99.35,0-180,80.652-180,180c0,99.35,80.652,180,180,180
			c95.545,0,171.901-74.005,179.386-165H463.147z"/>
	</g>
</g>
<g>
</g>
<g>
</g>
<g>
</g>
<g>
</g>
<g>
</g>
<g>
</g>
<g>
</g>
<g>
</g>
<g>
</g>
<g>
</g>
<g>
</g>
<g>
</g>
<g>
</g>
<g>
</g>
<g>
</g>
</svg>
