<?xml version="1.0" encoding="iso-8859-1"?>
<!-- Generator: Adobe Illustrator 19.0.0, SVG Export Plug-In . SVG Version: 6.00 Build 0)  -->
<svg version="1.1" id="Capa_1" xmlns="http://www.w3.org/2000/svg" xmlns:xlink="http://www.w3.org/1999/xlink" x="0px" y="0px"
	 viewBox="0 0 512 512" style="enable-background:new 0 0 512 512;" xml:space="preserve">
<g>
	<g>
		<path d="M436.813,75.188C388.327,26.702,324.113,0,256,0S123.673,26.702,75.188,75.188C26.703,123.674,0,187.887,0,256
			s26.702,132.327,75.188,180.812C123.674,485.297,187.887,512,256,512s132.327-26.702,180.813-75.188
			C485.299,388.326,512,324.113,512,256S485.298,123.673,436.813,75.188z M256,482C131.383,482,30,380.617,30,256S131.383,30,256,30
			s226,101.383,226,226S380.617,482,256,482z"/>
	</g>
</g>
<g>
	<g>
		<path d="M393.886,118.114l-10.606-10.607l-63.64,63.64l10.606,10.607c40.939,40.939,40.939,107.553,0,148.492
			c-40.939,40.939-107.553,40.939-148.492,0c-40.939-40.939-40.939-107.553,0-148.492l10.606-10.607l-63.64-63.64l-10.606,10.607
			c-76.03,76.031-76.03,199.741,0,275.772c36.778,36.778,85.747,57.033,137.886,57.033c52.139,0,101.107-20.255,137.886-57.033
			C469.916,317.855,469.916,194.145,393.886,118.114z M372.673,372.673c-31.112,31.112-72.547,48.246-116.673,48.246
			c-44.126,0-85.561-17.134-116.673-48.246c-60.76-60.76-64.139-157.503-10.129-222.261l21.321,21.321
			c-42.369,52.956-39.03,130.676,10.021,179.727c52.637,52.636,138.281,52.636,190.918,0
			c49.052-49.051,52.391-126.771,10.021-179.727l21.321-21.321C436.812,215.17,433.433,311.912,372.673,372.673z"/>
	</g>
</g>
<g>
	<g>
		<path d="M211,61v210h90V61H211z M271,241h-30V91h30V241z"/>
	</g>
</g>
<g>
</g>
<g>
</g>
<g>
</g>
<g>
</g>
<g>
</g>
<g>
</g>
<g>
</g>
<g>
</g>
<g>
</g>
<g>
</g>
<g>
</g>
<g>
</g>
<g>
</g>
<g>
</g>
<g>
</g>
</svg>
