<?xml version="1.0" encoding="iso-8859-1"?>
<!-- Generator: Adobe Illustrator 19.0.0, SVG Export Plug-In . SVG Version: 6.00 Build 0)  -->
<svg version="1.1" id="Capa_1" xmlns="http://www.w3.org/2000/svg" xmlns:xlink="http://www.w3.org/1999/xlink" x="0px" y="0px"
	 viewBox="0 0 512 512" style="enable-background:new 0 0 512 512;" xml:space="preserve">
<g>
	<g>
		<path d="M500.038,108.334c-141.406-102.973-346.67-102.973-488.076,0L0,117.158l52.783,72.791l12.133-8.835
			c110.721-80.627,271.447-80.627,382.168,0l12.133,8.835L512,117.158L500.038,108.334z M452.402,148.314
			C396.177,111.297,327.036,91.05,256,91.05s-140.177,20.248-196.402,57.265l-17.67-24.297c126.406-84.106,301.738-84.106,428.145,0
			L452.402,148.314z"/>
	</g>
</g>
<g>
	<g>
		<path d="M429.451,205.391C381.303,170.333,319.704,151.025,256,151.025s-125.303,19.307-173.449,54.366l-12.119,8.825
			l52.938,72.791l12.134-8.835c67.568-49.202,173.426-49.202,240.994,0l12.134,8.835l52.938-72.791L429.451,205.391z
			 M381.701,245.528c-37.084-23.085-81.39-34.624-125.701-34.624s-88.617,11.539-125.701,34.624l-17.685-24.317
			c84.293-53.429,202.479-53.429,286.771,0L381.701,245.528z"/>
	</g>
</g>
<g>
	<g>
		<path d="M358.862,302.448c-57.679-42-148.045-42-205.724,0l-12.119,8.824l52.938,72.792l12.133-8.836
			c26.121-19.022,73.699-19.022,99.82,0l12.133,8.836l52.938-72.792L358.862,302.448z M310.688,343.171
			c-16.225-8.132-35.456-12.198-54.688-12.198s-38.464,4.066-54.688,12.198l-17.826-24.511c42.756-23.488,102.273-23.488,145.029,0
			L310.688,343.171z"/>
	</g>
</g>
<g>
	<g>
		<path d="M256,390.896c-24.813,0-45,20.187-45,45s20.187,45,45,45s45-20.187,45-45S280.813,390.896,256,390.896z M256,450.896
			c-8.271,0-15-6.729-15-15s6.729-15,15-15s15,6.729,15,15S264.271,450.896,256,450.896z"/>
	</g>
</g>
<g>
</g>
<g>
</g>
<g>
</g>
<g>
</g>
<g>
</g>
<g>
</g>
<g>
</g>
<g>
</g>
<g>
</g>
<g>
</g>
<g>
</g>
<g>
</g>
<g>
</g>
<g>
</g>
<g>
</g>
</svg>
