<?xml version="1.0" encoding="iso-8859-1"?>
<!-- Generator: Adobe Illustrator 19.0.0, SVG Export Plug-In . SVG Version: 6.00 Build 0)  -->
<svg version="1.1" id="Capa_1" xmlns="http://www.w3.org/2000/svg" xmlns:xlink="http://www.w3.org/1999/xlink" x="0px" y="0px"
	 viewBox="0 0 512 512" style="enable-background:new 0 0 512 512;" xml:space="preserve">
<g>
	<g>
		<path d="M441.148,385.284C408.81,338.245,391,280.549,391,222.823V196c0-58.363-37.495-108.86-90-127.393V0h-90v68.833
			c-53.838,19.647-90,73.486-90,132.325v21.665c0,57.727-17.81,115.423-50.147,162.461L24.984,452h157.525
			c6.968,34.192,37.271,60,73.491,60c36.22,0,66.522-25.808,73.491-60h157.525L441.148,385.284z M241,30h30v31.791
			c-9.235-1.002-18.672-1.069-28.212-0.16c-0.598,0.057-1.192,0.127-1.788,0.193V30z M151,222.823v-21.665
			c0-56.432,41.569-104.601,94.636-109.662C309.347,85.43,361,135.611,361,196v26.823c0,37.171,6.707,74.336,19.378,109.177H131.622
			C144.293,297.16,151,259.994,151,222.823z M256,482c-19.555,0-36.228-12.542-42.42-30h84.84C292.228,469.458,275.555,482,256,482z
			 M82.016,422c14.999-21.818,24.99-35.335,36.936-60h274.096c11.951,24.675,21.962,38.219,36.937,60H82.016z"/>
	</g>
</g>
<g>
</g>
<g>
</g>
<g>
</g>
<g>
</g>
<g>
</g>
<g>
</g>
<g>
</g>
<g>
</g>
<g>
</g>
<g>
</g>
<g>
</g>
<g>
</g>
<g>
</g>
<g>
</g>
<g>
</g>
</svg>
