<?xml version="1.0" encoding="iso-8859-1"?>
<!-- Generator: Adobe Illustrator 19.0.0, SVG Export Plug-In . SVG Version: 6.00 Build 0)  -->
<svg version="1.1" id="Capa_1" xmlns="http://www.w3.org/2000/svg" xmlns:xlink="http://www.w3.org/1999/xlink" x="0px" y="0px"
	 viewBox="0 0 512 512" style="enable-background:new 0 0 512 512;" xml:space="preserve">
<g>
	<g>
		<path d="M181,102.783v304.145C165.186,397.6,144.256,392,121,392c-50.467,0-90,26.355-90,60c0,33.645,39.533,60,90,60
			s90-26.355,90-60V214.311l240-80v182.617C435.186,307.6,414.256,302,391,302c-50.467,0-90,26.355-90,60c0,33.645,39.533,60,90,60
			c50.467,0,90-26.355,90-60V0L181,102.783z M121,482c-34.341,0-60-15.838-60-30s25.659-30,60-30s60,15.838,60,30
			S155.341,482,121,482z M391,392c-34.341,0-60-15.838-60-30s25.659-30,60-30s60,15.838,60,30S425.341,392,391,392z M451,102.689
			l-240,80v-58.472l240-82.222V102.689z"/>
	</g>
</g>
<g>
</g>
<g>
</g>
<g>
</g>
<g>
</g>
<g>
</g>
<g>
</g>
<g>
</g>
<g>
</g>
<g>
</g>
<g>
</g>
<g>
</g>
<g>
</g>
<g>
</g>
<g>
</g>
<g>
</g>
</svg>
