<?xml version="1.0" encoding="iso-8859-1"?>
<!-- Generator: Adobe Illustrator 19.0.0, SVG Export Plug-In . SVG Version: 6.00 Build 0)  -->
<svg version="1.1" id="Capa_1" xmlns="http://www.w3.org/2000/svg" xmlns:xlink="http://www.w3.org/1999/xlink" x="0px" y="0px"
	 viewBox="0 0 512 512" style="enable-background:new 0 0 512 512;" xml:space="preserve">
<g>
	<g>
		<path d="M331,0v287c0,41.355-33.645,75-75,75c-41.355,0-75-33.645-75-75V0H31v287c0,124.357,100.632,225,225,225
			c124.357,0,225-100.632,225-225V0H331z M61,30h90v91H61V30z M451,287c0,107.523-87.477,195-195,195S61,394.523,61,287V151h90v136
			c0,57.897,47.103,105,105,105c57.897,0,105-47.103,105-105V151h90V287z M451,121h-90V30h90V121z"/>
	</g>
</g>
<g>
</g>
<g>
</g>
<g>
</g>
<g>
</g>
<g>
</g>
<g>
</g>
<g>
</g>
<g>
</g>
<g>
</g>
<g>
</g>
<g>
</g>
<g>
</g>
<g>
</g>
<g>
</g>
<g>
</g>
</svg>
