<?xml version="1.0" encoding="iso-8859-1"?>
<!-- Generator: Adobe Illustrator 19.0.0, SVG Export Plug-In . SVG Version: 6.00 Build 0)  -->
<svg version="1.1" id="Capa_1" xmlns="http://www.w3.org/2000/svg" xmlns:xlink="http://www.w3.org/1999/xlink" x="0px" y="0px"
	 viewBox="0 0 512 512" style="enable-background:new 0 0 512 512;" xml:space="preserve">
<g>
	<g>
		<path d="M240,60c-33.084,0-60,26.916-60,60s26.916,60,60,60s60-26.916,60-60S273.084,60,240,60z M240,150
			c-16.542,0-30-13.458-30-30s13.458-30,30-30s30,13.458,30,30S256.542,150,240,150z"/>
	</g>
</g>
<g>
	<g>
		<path d="M240,300c-33.084,0-60,26.916-60,60s26.916,60,60,60s60-26.916,60-60S273.084,300,240,300z M240,390
			c-16.542,0-30-13.458-30-30s13.458-30,30-30s30,13.458,30,30S256.542,390,240,390z"/>
	</g>
</g>
<g>
	<g>
		<path d="M120,180c-33.084,0-60,26.916-60,60s26.916,60,60,60s60-26.916,60-60S153.084,180,120,180z M120,270
			c-16.542,0-30-13.458-30-30s13.458-30,30-30s30,13.458,30,30S136.542,270,120,270z"/>
	</g>
</g>
<g>
	<g>
		<path d="M360,180c-33.084,0-60,26.916-60,60s26.916,60,60,60s60-26.916,60-60S393.084,180,360,180z M360,270
			c-16.542,0-30-13.458-30-30s13.458-30,30-30s30,13.458,30,30S376.542,270,360,270z"/>
	</g>
</g>
<g>
	<g>
		<path d="M240,210c-16.542,0-30,13.458-30,30s13.458,30,30,30s30-13.458,30-30S256.542,210,240,210z"/>
	</g>
</g>
<g>
	<g>
		<path d="M480,450V225h-0.476C471.842,99.618,367.872,0,240,0C107.353,0,0,107.341,0,240c0,132.647,107.341,240,240,240
			c90.408,0,168.926-49.76,210-123.618V450c0,33.028,28.972,62,62,62v-30C495.552,482,480,466.449,480,450z M240,450
			c-115.794,0-210-94.206-210-210S124.206,30,240,30s210,94.206,210,210S355.794,450,240,450z"/>
	</g>
</g>
<g>
</g>
<g>
</g>
<g>
</g>
<g>
</g>
<g>
</g>
<g>
</g>
<g>
</g>
<g>
</g>
<g>
</g>
<g>
</g>
<g>
</g>
<g>
</g>
<g>
</g>
<g>
</g>
<g>
</g>
</svg>
