<?xml version="1.0" encoding="iso-8859-1"?>
<!-- Generator: Adobe Illustrator 19.0.0, SVG Export Plug-In . SVG Version: 6.00 Build 0)  -->
<svg version="1.1" id="Capa_1" xmlns="http://www.w3.org/2000/svg" xmlns:xlink="http://www.w3.org/1999/xlink" x="0px" y="0px"
	 viewBox="0 0 512 512" style="enable-background:new 0 0 512 512;" xml:space="preserve">
<g>
	<g>
		<path d="M446.579,421l-150-421h-81.158l-150,421H0v91h512v-91H446.579z M236.579,30h38.842l11.045,31h-60.932L236.579,30z
			 M214.846,91h82.31l21.376,60H193.468L214.846,91z M182.779,181h146.442l21.378,60H161.401L182.779,181z M150.712,271h210.576
			l21.378,60H129.334L150.712,271z M118.646,361h274.708l21.378,60H97.268L118.646,361z M482,482H30v-31h452V482z"/>
	</g>
</g>
<g>
</g>
<g>
</g>
<g>
</g>
<g>
</g>
<g>
</g>
<g>
</g>
<g>
</g>
<g>
</g>
<g>
</g>
<g>
</g>
<g>
</g>
<g>
</g>
<g>
</g>
<g>
</g>
<g>
</g>
</svg>
