<?xml version="1.0" encoding="iso-8859-1"?>
<!-- Generator: Adobe Illustrator 19.0.0, SVG Export Plug-In . SVG Version: 6.00 Build 0)  -->
<svg version="1.1" id="Capa_1" xmlns="http://www.w3.org/2000/svg" xmlns:xlink="http://www.w3.org/1999/xlink" x="0px" y="0px"
	 viewBox="0 0 512 512" style="enable-background:new 0 0 512 512;" xml:space="preserve">
<g>
	<g>
		<path d="M391.264,211.413v30.059h-30.059V105.206C361.206,47.195,314.01,0,256,0S150.795,47.195,150.795,105.206v136.266h-30.059
			v-30.059H90.677v75.147c0,86.093,66.152,157.014,150.294,164.633v30.749h-90.176V512h210.411v-30.059h-90.176v-30.749
			c84.141-7.619,150.294-78.539,150.294-164.633v-75.147H391.264z M180.853,105.206c0-41.436,33.711-75.147,75.147-75.147
			s75.147,33.711,75.147,75.147v136.266H180.853V105.206z M180.853,271.53h150.294v15.029c0,41.436-33.711,75.147-75.147,75.147
			s-75.147-33.711-75.147-75.147V271.53z M391.264,286.56c0,74.585-60.68,135.264-135.264,135.264s-135.264-60.68-135.264-135.264
			V271.53h30.059v15.029c0,58.01,47.195,105.205,105.206,105.205S361.206,344.57,361.206,286.56V271.53h30.059V286.56z"/>
	</g>
</g>
<g>
	<g>
		<rect x="271.029" y="120.235" width="30.059" height="30.059"/>
	</g>
</g>
<g>
	<g>
		<rect x="240.971" y="180.352" width="30.059" height="30.059"/>
	</g>
</g>
<g>
	<g>
		<rect x="210.912" y="120.235" width="30.059" height="30.059"/>
	</g>
</g>
<g>
	<g>
		<rect x="240.971" y="60.117" width="30.059" height="30.059"/>
	</g>
</g>
<g>
</g>
<g>
</g>
<g>
</g>
<g>
</g>
<g>
</g>
<g>
</g>
<g>
</g>
<g>
</g>
<g>
</g>
<g>
</g>
<g>
</g>
<g>
</g>
<g>
</g>
<g>
</g>
<g>
</g>
</svg>
