<?xml version="1.0" encoding="iso-8859-1"?>
<!-- Generator: Adobe Illustrator 19.0.0, SVG Export Plug-In . SVG Version: 6.00 Build 0)  -->
<svg version="1.1" id="Capa_1" xmlns="http://www.w3.org/2000/svg" xmlns:xlink="http://www.w3.org/1999/xlink" x="0px" y="0px"
	 viewBox="0 0 512 512" style="enable-background:new 0 0 512 512;" xml:space="preserve">
<g>
	<g>
		<path d="M402.17,90.775c7.4-12.653,9.972-27.592,7.047-42.225C399.156-1.749,334.939-17.313,302.936,22.69l-47.103,58.88
			l-47.103-58.88c-32.036-40.045-96.231-24.392-106.282,25.859c-2.927,14.634-0.353,29.573,7.047,42.225H0.47v119.78h30.943V512
			c9.068,0,440.997,0,449.174,0V210.554h30.943V90.775H402.17z M131.809,54.423c5.077-25.383,37.354-33.251,53.535-13.025
			l39.503,49.379c-6.193,0-57.025,0-63.237,0C142.416,90.776,128.052,73.213,131.809,54.423z M181.138,482.056H61.358v-271.5h119.78
			V482.056z M181.138,180.61H30.415v-59.89c3.929,0,145.028,0,150.723,0V180.61z M241.027,482.056h-29.945V120.721
			c11.588,0,18.885,0,29.945,0V482.056z M326.318,41.397c16.171-20.215,48.455-12.372,53.534,13.026
			c3.766,18.821-10.638,36.353-29.801,36.353c-7.64,0-56.091,0-63.237,0L326.318,41.397z M300.917,482.056h-29.945V120.721
			c16.85,0,13.173,0,29.945,0V482.056z M450.642,482.056h-119.78v-271.5h119.78V482.056z M481.585,180.61H330.862v-59.89
			c6.318,0,145.486,0,150.723,0V180.61z"/>
	</g>
</g>
<g>
</g>
<g>
</g>
<g>
</g>
<g>
</g>
<g>
</g>
<g>
</g>
<g>
</g>
<g>
</g>
<g>
</g>
<g>
</g>
<g>
</g>
<g>
</g>
<g>
</g>
<g>
</g>
<g>
</g>
</svg>
