<?xml version="1.0" encoding="iso-8859-1"?>
<!-- Generator: Adobe Illustrator 19.0.0, SVG Export Plug-In . SVG Version: 6.00 Build 0)  -->
<svg version="1.1" id="Capa_1" xmlns="http://www.w3.org/2000/svg" xmlns:xlink="http://www.w3.org/1999/xlink" x="0px" y="0px"
	 viewBox="0 0 512 512" style="enable-background:new 0 0 512 512;" xml:space="preserve">
<g>
	<g>
		<path d="M450.911,143.636V0.233h-89.959v77.11L256,0L0.116,188.568v112.528h60.972c0,2.496,0,206.692,0,210.904h389.823
			c0-4.21,0-208.408,0-210.904h60.972V188.568h0L450.911,143.636z M390.939,30.219h29.986v91.318L390.939,99.44V30.219z
			 M300.98,482.014H211.02V346.076c0-24.802,20.178-44.979,44.98-44.979s44.98,20.178,44.98,44.979V482.014z M420.925,482.014
			h-89.959V346.076c0-41.336-33.63-74.966-74.966-74.966s-74.966,33.63-74.966,74.966v135.938H91.075c0-10.951,0-237.575,0-248.306
			L256,112.213l164.925,121.495C420.925,244.439,420.925,471.063,420.925,482.014z M481.897,271.11h-30.986V226.13v-7.578
			L256,74.968L61.089,218.553v7.578v44.979H30.103v-67.39L256,37.249l225.897,166.47V271.11z"/>
	</g>
</g>
<g>
</g>
<g>
</g>
<g>
</g>
<g>
</g>
<g>
</g>
<g>
</g>
<g>
</g>
<g>
</g>
<g>
</g>
<g>
</g>
<g>
</g>
<g>
</g>
<g>
</g>
<g>
</g>
<g>
</g>
</svg>
