<?xml version="1.0" encoding="iso-8859-1"?>
<!-- Generator: Adobe Illustrator 19.0.0, SVG Export Plug-In . SVG Version: 6.00 Build 0)  -->
<svg version="1.1" id="Capa_1" xmlns="http://www.w3.org/2000/svg" xmlns:xlink="http://www.w3.org/1999/xlink" x="0px" y="0px"
	 viewBox="0 0 511.999 511.999" style="enable-background:new 0 0 511.999 511.999;" xml:space="preserve">
<g>
	<g>
		<path d="M131.01,151.054H0.106v209.891h130.903l199.925,151.054V0L131.01,151.054z M121.043,330.96H30.09V181.039h90.953V330.96z
			 M300.949,451.764L151.027,338.49V173.51L300.949,60.236V451.764z"/>
	</g>
</g>
<g>
	<g>
		<path d="M375.189,201.09l-24.94,16.645c15.513,23.244,15.506,53.296-0.016,76.56l24.942,16.641
			C397.443,277.561,397.448,234.445,375.189,201.09z"/>
	</g>
</g>
<g>
	<g>
		<path d="M475.002,134.573l-6.72-10.088l-24.954,16.624l6.725,10.094c42.458,63.66,42.453,145.942-0.016,209.625l-6.706,10.058
			l24.948,16.632l6.705-10.057C524.19,303.675,524.196,208.332,475.002,134.573z"/>
	</g>
</g>
<g>
	<g>
		<path d="M425.096,167.821l-6.727-10.091l-24.949,16.632l6.727,10.092c28.975,43.462,28.975,99.629,0,143.092l-6.727,10.091
			l24.949,16.632l6.725-10.091C460.807,290.612,460.807,221.388,425.096,167.821z"/>
	</g>
</g>
<g>
</g>
<g>
</g>
<g>
</g>
<g>
</g>
<g>
</g>
<g>
</g>
<g>
</g>
<g>
</g>
<g>
</g>
<g>
</g>
<g>
</g>
<g>
</g>
<g>
</g>
<g>
</g>
<g>
</g>
</svg>
