<?xml version="1.0" encoding="iso-8859-1"?>
<!-- Generator: Adobe Illustrator 19.0.0, SVG Export Plug-In . SVG Version: 6.00 Build 0)  -->
<svg version="1.1" id="Capa_1" xmlns="http://www.w3.org/2000/svg" xmlns:xlink="http://www.w3.org/1999/xlink" x="0px" y="0px"
	 viewBox="0 0 512 512" style="enable-background:new 0 0 512 512;" xml:space="preserve">
<g>
	<g>
		<path d="M256,13.094c-141.159,0-256,114.392-256,255c0,6.721,0,158.521,0,165h60v25.812l120,40V247.283l-90,30v-9.189
			c0-90.981,74.467-165,166-165s166,74.019,166,165v9.189l-90-30v251.623l120-40v-25.812h60c0-6.396,0-158.452,0-165
			C512,127.487,397.159,13.094,256,13.094z M422,437.283l-60,20V288.906l60,20C422,315.382,422,430.844,422,437.283z M60,403.094H30
			v-60h30V403.094z M150,288.906v168.377l-60-20c0-6.478,0-121.938,0-128.377L150,288.906z M482,403.094h-30v-60h30V403.094z
			 M482,313.094h-30c0-8.888,0-36.321,0-45c0-107.523-87.925-195-196-195s-196,87.477-196,195c0,8.681,0,36.112,0,45H30v-45
			c0-124.065,101.383-225,226-225s226,100.935,226,225V313.094z"/>
	</g>
</g>
<g>
</g>
<g>
</g>
<g>
</g>
<g>
</g>
<g>
</g>
<g>
</g>
<g>
</g>
<g>
</g>
<g>
</g>
<g>
</g>
<g>
</g>
<g>
</g>
<g>
</g>
<g>
</g>
<g>
</g>
</svg>
