<?xml version="1.0" encoding="iso-8859-1"?>
<!-- Generator: Adobe Illustrator 19.0.0, SVG Export Plug-In . SVG Version: 6.00 Build 0)  -->
<svg version="1.1" id="Capa_1" xmlns="http://www.w3.org/2000/svg" xmlns:xlink="http://www.w3.org/1999/xlink" x="0px" y="0px"
	 viewBox="0 0 512 512" style="enable-background:new 0 0 512 512;" xml:space="preserve">
<g>
	<g>
		<path d="M451,91V31H279.787L256,54.787L232.213,31H61v60H0v360h184.837c11.633,21.532,44.657,30,71.163,30
			c25.307,0,59.245-7.939,71.163-30H512V91H451z M271,82.213L292.213,61H421v300H279.787L271,369.787V82.213z M91,61h128.787
			L241,82.213v287.574L232.213,361H91V61z M482,421H301v15c0,3.309-15.255,15-45,15c-29.247,0-45-11.493-45-15v-15H30V121h31v270
			h158.787L256,427.213L292.213,391H451V121h31V421z"/>
	</g>
</g>
<g>
</g>
<g>
</g>
<g>
</g>
<g>
</g>
<g>
</g>
<g>
</g>
<g>
</g>
<g>
</g>
<g>
</g>
<g>
</g>
<g>
</g>
<g>
</g>
<g>
</g>
<g>
</g>
<g>
</g>
</svg>
