<?xml version="1.0" encoding="iso-8859-1"?>
<!-- Generator: Adobe Illustrator 19.0.0, SVG Export Plug-In . SVG Version: 6.00 Build 0)  -->
<svg version="1.1" id="Capa_1" xmlns="http://www.w3.org/2000/svg" xmlns:xlink="http://www.w3.org/1999/xlink" x="0px" y="0px"
	 viewBox="0 0 512 512" style="enable-background:new 0 0 512 512;" xml:space="preserve">
<g>
	<g>
		<path d="M436.813,75.188C388.327,26.702,324.113,0,256,0S123.673,26.702,75.188,75.188C26.703,123.674,0,187.887,0,256
			s26.702,132.327,75.188,180.812C123.674,485.297,187.887,512,256,512s132.327-26.702,180.813-75.188
			C485.299,388.326,512,324.113,512,256S485.298,123.673,436.813,75.188z M256,482C131.383,482,30,380.617,30,256S131.383,30,256,30
			s226,101.383,226,226S380.617,482,256,482z"/>
	</g>
</g>
<g>
	<g>
		<path d="M211,211v210h90V211H211z M271,391h-30V241h30V391z"/>
	</g>
</g>
<g>
	<g>
		<path d="M211,91v90h90V91H211z M271,151h-30v-30h30V151z"/>
	</g>
</g>
<g>
</g>
<g>
</g>
<g>
</g>
<g>
</g>
<g>
</g>
<g>
</g>
<g>
</g>
<g>
</g>
<g>
</g>
<g>
</g>
<g>
</g>
<g>
</g>
<g>
</g>
<g>
</g>
<g>
</g>
</svg>
