<?xml version="1.0" encoding="iso-8859-1"?>
<!-- Generator: Adobe Illustrator 19.0.0, SVG Export Plug-In . SVG Version: 6.00 Build 0)  -->
<svg version="1.1" id="Capa_1" xmlns="http://www.w3.org/2000/svg" xmlns:xlink="http://www.w3.org/1999/xlink" x="0px" y="0px"
	 viewBox="0 0 512 512" style="enable-background:new 0 0 512 512;" xml:space="preserve">
<g>
	<g>
		<path d="M464.126,400.596L354.211,290.681l84.853-84.853l-10.606-10.606c-37.66-37.662-96.298-40.523-137.132-9.858
			l-80.404-80.404c19.163-28.607,16.78-68.494-9.383-94.657L190.932,0L0,191.042l10.193,10.607
			c26.17,26.17,66.057,28.541,94.656,9.383l80.404,80.404c-30.656,40.822-27.822,99.452,9.858,137.132l10.606,10.606l84.853-84.853
			l109.926,109.925L512,512L464.126,400.596z M95.046,180.435c-14.112,14.113-34.85,16.647-51.231,8.804L189.13,43.925
			c7.842,16.382,5.308,37.118-8.805,51.231L95.046,180.435z M127.076,190.831l63.646-63.645l78.639,78.64l-63.645,63.645
			L127.076,190.831z M269.358,333.108l-62.585,62.585c-19.084-28.737-16.413-68.441,9.552-94.405l84.853-84.853
			c25.859-25.858,65.541-28.72,94.405-9.552C391.944,210.522,272.188,330.278,269.358,333.108z M417.632,438.953L311.784,333.108
			c11.593-11.593,8.11-8.11,21.214-21.214L438.854,417.75l16.052,37.206L417.632,438.953z"/>
	</g>
</g>
<g>
</g>
<g>
</g>
<g>
</g>
<g>
</g>
<g>
</g>
<g>
</g>
<g>
</g>
<g>
</g>
<g>
</g>
<g>
</g>
<g>
</g>
<g>
</g>
<g>
</g>
<g>
</g>
<g>
</g>
</svg>
