<?xml version="1.0" encoding="iso-8859-1"?>
<!-- Generator: Adobe Illustrator 19.0.0, SVG Export Plug-In . SVG Version: 6.00 Build 0)  -->
<svg version="1.1" id="Capa_1" xmlns="http://www.w3.org/2000/svg" xmlns:xlink="http://www.w3.org/1999/xlink" x="0px" y="0px"
	 viewBox="0 0 512 512" style="enable-background:new 0 0 512 512;" xml:space="preserve">
<g>
	<g>
		<path d="M481,181V61h-60V0H91v61H31v120H0v210h91v121h330V391h91V181H481z M421,91h30v90h-30V91z M121,30h270v151H121V30z M61,91
			h30v90H61V91z M391,482H121V331h270V482z M482,361h-61v-60H91v60H30V211c24.428,0,437.657,0,452,0V361z"/>
	</g>
</g>
<g>
	<g>
		<rect x="421" y="241" width="30" height="30"/>
	</g>
</g>
<g>
	<g>
		<rect x="361" y="241" width="30" height="30"/>
	</g>
</g>
<g>
	<g>
		<rect x="151" y="391" width="210" height="30"/>
	</g>
</g>
<g>
</g>
<g>
</g>
<g>
</g>
<g>
</g>
<g>
</g>
<g>
</g>
<g>
</g>
<g>
</g>
<g>
</g>
<g>
</g>
<g>
</g>
<g>
</g>
<g>
</g>
<g>
</g>
<g>
</g>
</svg>
