<?xml version="1.0" encoding="iso-8859-1"?>
<!-- Generator: Adobe Illustrator 19.0.0, SVG Export Plug-In . SVG Version: 6.00 Build 0)  -->
<svg version="1.1" id="Capa_1" xmlns="http://www.w3.org/2000/svg" xmlns:xlink="http://www.w3.org/1999/xlink" x="0px" y="0px"
	 viewBox="0 0 512 512" style="enable-background:new 0 0 512 512;" xml:space="preserve">
<g>
	<g>
		<path d="M512,121V31h-61V0C443.537,0,7.292,0,0,0v512c11.712,0,445.729,0,451,0v-22h61v-90h-61v-39h61v-90h-61v-30h61v-90h-61v-30
			H512z M451,61h31v30h-31V61z M60,482H30V30h30V482z M421,482H90V30h331V482z M482,430v30h-31v-30H482z M482,301v30h-31v-30H482z
			 M482,181v30h-31v-30H482z"/>
	</g>
</g>
<g>
	<g>
		<path d="M358.48,322.679c-21.385-32.078-55.512-49.739-92.102-52.414C302.837,265.194,331,233.833,331,196
			c0-41.355-33.645-75-75-75c-41.355,0-75,33.645-75,75c0,38.011,28.431,69.487,65.141,74.332
			c-38.357,3-72.446,22.084-92.622,52.348l-2.52,3.779V391h210v-64.542H361L358.48,322.679z M211,196c0-24.813,20.187-45,45-45
			s45,20.187,45,45s-20.187,45-45,45S211,220.813,211,196z M331,361H181v-25.238c16.681-22.219,45.304-35.858,75.817-35.858
			c30.484,0,57.269,13.001,74.183,35.833V361z"/>
	</g>
</g>
<g>
</g>
<g>
</g>
<g>
</g>
<g>
</g>
<g>
</g>
<g>
</g>
<g>
</g>
<g>
</g>
<g>
</g>
<g>
</g>
<g>
</g>
<g>
</g>
<g>
</g>
<g>
</g>
<g>
</g>
</svg>
