<?xml version="1.0" encoding="iso-8859-1"?>
<!-- Generator: Adobe Illustrator 19.0.0, SVG Export Plug-In . SVG Version: 6.00 Build 0)  -->
<svg version="1.1" id="Capa_1" xmlns="http://www.w3.org/2000/svg" xmlns:xlink="http://www.w3.org/1999/xlink" x="0px" y="0px"
	 viewBox="0 0 512 512" style="enable-background:new 0 0 512 512;" xml:space="preserve">
<g>
	<g>
		<path d="M331,61V0H181v61H91v451h330V61H331z M211,30h90v31h-90V30z M391,482H121V91h270V482z"/>
	</g>
</g>
<g>
	<g>
		<path d="M151,151c0,12.49,0,287.517,0,300h210c0-9.688,0-188.824,0-195c0-11.481,0-92.078,0-105H151z M331,421H181v-60h150V421z
			 M331,331H181v-60h150V331z M331,241H181v-60h150V241z"/>
	</g>
</g>
<g>
</g>
<g>
</g>
<g>
</g>
<g>
</g>
<g>
</g>
<g>
</g>
<g>
</g>
<g>
</g>
<g>
</g>
<g>
</g>
<g>
</g>
<g>
</g>
<g>
</g>
<g>
</g>
<g>
</g>
</svg>
