<?xml version="1.0" encoding="iso-8859-1"?>
<!-- Generator: Adobe Illustrator 19.0.0, SVG Export Plug-In . SVG Version: 6.00 Build 0)  -->
<svg version="1.1" id="Capa_1" xmlns="http://www.w3.org/2000/svg" xmlns:xlink="http://www.w3.org/1999/xlink" x="0px" y="0px"
	 viewBox="0 0 512 512" style="enable-background:new 0 0 512 512;" xml:space="preserve">
<g>
	<g>
		<path d="M407,31H105C47.103,31,0,78.103,0,136c0,57.897,47.103,105,105,105h302c57.897,0,105-47.103,105-105
			C512,78.103,464.897,31,407,31z M105,211c-41.355,0-75-33.645-75-75s33.645-75,75-75s75,33.645,75,75S146.355,211,105,211z
			 M407,211H178.404C197.887,191.927,210,165.354,210,136s-12.113-55.927-31.596-75H407c41.355,0,75,33.645,75,75
			S448.355,211,407,211z"/>
	</g>
</g>
<g>
	<g>
		<path d="M407,271H105C47.103,271,0,318.103,0,376c0,57.897,47.103,105,105,105h302c57.897,0,105-47.103,105-105
			C512,318.103,464.897,271,407,271z M105,451c-41.355,0-75-33.645-75-75c0-41.355,33.645-75.2,75-75.2h228.596
			C314.113,319.873,302,346.646,302,376s12.113,55.927,31.596,75H105z M407,451c-41.355,0-75-33.645-75-75c0-41.355,33.645-75,75-75
			c41.355,0,75,33.645,75,75C482,417.355,448.355,451,407,451z"/>
	</g>
</g>
<g>
</g>
<g>
</g>
<g>
</g>
<g>
</g>
<g>
</g>
<g>
</g>
<g>
</g>
<g>
</g>
<g>
</g>
<g>
</g>
<g>
</g>
<g>
</g>
<g>
</g>
<g>
</g>
<g>
</g>
</svg>
