<?xml version="1.0" encoding="iso-8859-1"?>
<!-- Generator: Adobe Illustrator 19.0.0, SVG Export Plug-In . SVG Version: 6.00 Build 0)  -->
<svg version="1.1" id="Capa_1" xmlns="http://www.w3.org/2000/svg" xmlns:xlink="http://www.w3.org/1999/xlink" x="0px" y="0px"
	 viewBox="0 0 512 512" style="enable-background:new 0 0 512 512;" xml:space="preserve">
<g>
	<g>
		<path d="M502.161,185.652C508.685,169.57,512,152.558,512,135C512,60.561,451.439,0,377,0c-17.558,0-34.569,3.315-50.651,9.839
			C303.736,3.363,280.115,0,256,0s-47.736,3.363-70.349,9.839C169.569,3.315,152.558,0,135,0C60.561,0,0,60.561,0,135
			c0,17.558,3.315,34.57,9.839,50.652C3.363,208.265,0,231.885,0,256s3.363,47.735,9.839,70.348C3.315,342.43,0,359.442,0,377
			c0,74.439,60.561,135,135,135c17.558,0,34.569-3.315,50.651-9.839C208.264,508.637,231.885,512,256,512s47.736-3.363,70.349-9.839
			C342.431,508.685,359.442,512,377,512c74.439,0,135-60.561,135-135c0-17.558-3.315-34.57-9.839-50.652
			C508.637,303.735,512,280.115,512,256S508.637,208.265,502.161,185.652z M332,43.162C395.578,65.933,446.067,116.422,468.838,180
			H368.459c-9.469-13.842-21.774-26.413-36.459-36.458V43.162z M210,34.711C224.857,31.627,240.242,30,256,30s31.143,1.627,46,4.711
			v93.386c-14.596-5.32-30.108-8.097-46-8.097c-15.892,0-31.404,2.777-46,8.097V34.711z M135,30c0.3,0,0.598,0.009,0.897,0.012
			C91.273,53.919,53.93,91.253,30.012,135.897C30.009,135.598,30,135.3,30,135C30,77.103,77.103,30,135,30z M180,43.162v100.38
			c-13.842,9.469-26.413,21.774-36.459,36.458H43.162C65.933,116.422,116.422,65.933,180,43.162z M34.711,209.8h93.386
			C122.777,224.396,120,240.108,120,256c0,15.892,2.777,31.404,8.097,46H34.711C31.627,287.143,30,271.758,30,256
			S31.627,224.657,34.711,209.8z M135,482c-57.897,0-105-47.103-105-105c0-0.3,0.009-0.598,0.012-0.897
			c23.908,44.625,61.241,81.967,105.885,105.886C135.598,481.991,135.3,482,135,482z M180,468.838
			C116.422,446.067,65.933,395.578,43.162,332h100.379c4.825,7.053,10.345,13.724,16.54,19.919s12.866,11.715,19.919,16.539V468.838
			z M302.002,477.288C287.144,480.373,271.759,482,256,482c-15.758,0-31.143-1.627-46-4.711v-93.386
			c14.596,5.32,30.108,8.097,46,8.097c15.893,0,31.406-2.777,46.003-8.098L302.002,477.288z M256,362c-57.458,0-106-48.542-106-106
			s48.542-106,106-106s106,48.542,106,106S313.458,362,256,362z M331.803,368.456c13.872-9.49,26.631-22.002,36.656-36.657h100.379
			c-22.771,63.578-73.459,114.267-137.036,137.038L331.803,368.456z M377,482c-0.3,0-0.598-0.009-0.897-0.012
			c44.623-23.908,81.967-61.241,105.885-105.886c0.003,0.3,0.012,0.598,0.012,0.898C482,434.897,434.897,482,377,482z M477.289,302
			h-93.386c5.32-14.596,8.097-30.108,8.097-46c0-15.892-2.777-31.404-8.097-46h93.386c3.084,14.857,4.711,30.242,4.711,46
			S480.373,287.143,477.289,302z M481.988,135.897C458.081,91.274,420.747,53.93,376.103,30.012C376.402,30.009,376.7,30,377,30
			c57.897,0,105,47.103,105,105C482,135.3,481.991,135.598,481.988,135.897z"/>
	</g>
</g>
<g>
</g>
<g>
</g>
<g>
</g>
<g>
</g>
<g>
</g>
<g>
</g>
<g>
</g>
<g>
</g>
<g>
</g>
<g>
</g>
<g>
</g>
<g>
</g>
<g>
</g>
<g>
</g>
<g>
</g>
</svg>
