<?xml version="1.0" encoding="iso-8859-1"?>
<!-- Generator: Adobe Illustrator 19.0.0, SVG Export Plug-In . SVG Version: 6.00 Build 0)  -->
<svg version="1.1" id="Capa_1" xmlns="http://www.w3.org/2000/svg" xmlns:xlink="http://www.w3.org/1999/xlink" x="0px" y="0px"
	 viewBox="0 0 512 512" style="enable-background:new 0 0 512 512;" xml:space="preserve">
<g>
	<g>
		<path d="M300.968,181.052L300.968,181.052h140.405L512,121.195l-70.61-60.061h-140.42V0.176h-89.938v60.958H61.134v119.918
			h149.897v29.979H70.61L0,271.091l70.625,59.857H211.03v180.876h89.938V330.948h149.897V211.03H300.968V181.052z M241.01,30.156
			h29.979v30.979H241.01V30.156z M91.113,151.072V91.114h339.25l35.317,30.039l-35.301,29.918H91.113z M270.99,181.052v29.979
			H241.01v-29.979H270.99z M270.99,481.845H241.01V330.949h29.979V481.845z M420.886,241.011v59.959H81.621l-35.302-29.918
			l35.317-30.04H420.886z"/>
	</g>
</g>
<g>
</g>
<g>
</g>
<g>
</g>
<g>
</g>
<g>
</g>
<g>
</g>
<g>
</g>
<g>
</g>
<g>
</g>
<g>
</g>
<g>
</g>
<g>
</g>
<g>
</g>
<g>
</g>
<g>
</g>
</svg>
