<?xml version="1.0" encoding="iso-8859-1"?>
<!-- Generator: Adobe Illustrator 19.0.0, SVG Export Plug-In . SVG Version: 6.00 Build 0)  -->
<svg version="1.1" id="Capa_1" xmlns="http://www.w3.org/2000/svg" xmlns:xlink="http://www.w3.org/1999/xlink" x="0px" y="0px"
	 viewBox="0 0 512 512" style="enable-background:new 0 0 512 512;" xml:space="preserve">
<g>
	<g>
		<path d="M458.639,310.237L148.189,0L0,148.279L307.288,455.87l2.861,2.862L512,512L458.639,310.237z M423.961,317.984
			l-42.427,42.428L169.402,148.279l42.427-42.427L423.961,317.984z M42.123,148.28L148.189,42.213l42.426,42.426L84.549,190.706
			L42.123,148.28z M105.762,211.919l42.426-42.427L360.32,381.624l-42.426,42.427L105.762,211.919z M433.274,460.233l-86.328-22.809
			l90.402-90.402l22.853,86.284L433.274,460.233z M469.085,466.848l0.811,3.062l-3.063-0.81L469.085,466.848z"/>
	</g>
</g>
<g>
</g>
<g>
</g>
<g>
</g>
<g>
</g>
<g>
</g>
<g>
</g>
<g>
</g>
<g>
</g>
<g>
</g>
<g>
</g>
<g>
</g>
<g>
</g>
<g>
</g>
<g>
</g>
<g>
</g>
</svg>
