<?xml version="1.0" encoding="iso-8859-1"?>
<!-- Generator: Adobe Illustrator 19.0.0, SVG Export Plug-In . SVG Version: 6.00 Build 0)  -->
<svg version="1.1" id="Capa_1" xmlns="http://www.w3.org/2000/svg" xmlns:xlink="http://www.w3.org/1999/xlink" x="0px" y="0px"
	 viewBox="0 0 512.001 512.001" style="enable-background:new 0 0 512.001 512.001;" xml:space="preserve">
<g>
	<g>
		<path d="M359.908,36.78C321.087,5.271,270.214-6.788,220.339,3.697c-30.401,6.391-58.376,21.588-80.899,43.949
			c-22.535,22.374-37.923,50.244-44.497,80.597c-9.188,42.42-2.18,85.743,19.732,121.987c16.028,26.509,26.297,55.107,30.524,84.997
			l5.772,40.813v67.166l68.794,68.794h72.433l68.794-68.794v-67.165l5.754-40.693c4.026-28.477,14.804-57.961,32.032-87.633
			c14.536-25.036,22.22-53.65,22.22-82.75C420.998,115.013,398.733,68.292,359.908,36.78z M279.771,481.997h-47.579l-30.003-30.003
			h107.585L279.771,481.997z M330.989,421.991H180.974v-32.003h150.015V421.991z M240.98,164.965c0-8.272,6.73-15.002,15.002-15.002
			c8.272,0,15.001,6.73,15.001,15.002c0,8.272-6.73,15.001-15.001,15.001C247.71,179.967,240.98,173.237,240.98,164.965z
			 M372.833,232.65c-19.181,33.032-31.224,66.172-35.795,98.498l-4.076,28.837h-61.978V207.389
			c17.461-6.193,30.003-22.867,30.003-42.424c0-24.815-20.189-45.004-45.004-45.004c-24.815,0-45.005,20.189-45.005,45.004
			c0,19.557,12.542,36.232,30.003,42.424v152.595h-61.978l-4.095-28.958c-4.797-33.921-16.424-66.328-34.556-96.32
			c-17.932-29.659-23.644-65.213-16.085-100.112C135.131,84.434,176.22,43.63,226.51,33.059
			c40.991-8.616,82.721,1.231,114.491,27.018c31.772,25.789,49.994,64.018,49.994,104.888
			C390.995,188.78,384.715,212.185,372.833,232.65z"/>
	</g>
</g>
<g>
</g>
<g>
</g>
<g>
</g>
<g>
</g>
<g>
</g>
<g>
</g>
<g>
</g>
<g>
</g>
<g>
</g>
<g>
</g>
<g>
</g>
<g>
</g>
<g>
</g>
<g>
</g>
<g>
</g>
</svg>
