<?xml version="1.0" encoding="iso-8859-1"?>
<!-- Generator: Adobe Illustrator 19.0.0, SVG Export Plug-In . SVG Version: 6.00 Build 0)  -->
<svg version="1.1" id="Capa_1" xmlns="http://www.w3.org/2000/svg" xmlns:xlink="http://www.w3.org/1999/xlink" x="0px" y="0px"
	 viewBox="0 0 512 512" style="enable-background:new 0 0 512 512;" xml:space="preserve">
<g>
	<g>
		<path d="M256,0C115.03,0,0,115.05,0,256c0,140.97,115.05,256,256,256c140.97,0,256-115.05,256-256C512,115.03,396.95,0,256,0z
			 M256,482C131.383,482,30,380.617,30,256S131.383,30,256,30s226,101.383,226,226S380.617,482,256,482z"/>
	</g>
</g>
<g>
	<g>
		<path d="M256,61C148.477,61,61,148.477,61,256s87.477,195,195,195s195-87.477,195-195S363.523,61,256,61z M256,421
			c-90.981,0-165-74.019-165-165S165.019,91,256,91s165,74.019,165,165S346.981,421,256,421z"/>
	</g>
</g>
<g>
	<g>
		<polygon points="271,247.974 271,121 241,121 241,264.033 337.679,328.481 354.321,303.519 		"/>
	</g>
</g>
<g>
</g>
<g>
</g>
<g>
</g>
<g>
</g>
<g>
</g>
<g>
</g>
<g>
</g>
<g>
</g>
<g>
</g>
<g>
</g>
<g>
</g>
<g>
</g>
<g>
</g>
<g>
</g>
<g>
</g>
</svg>
