<?xml version="1.0" encoding="iso-8859-1"?>
<!-- Generator: Adobe Illustrator 19.0.0, SVG Export Plug-In . SVG Version: 6.00 Build 0)  -->
<svg version="1.1" id="Capa_1" xmlns="http://www.w3.org/2000/svg" xmlns:xlink="http://www.w3.org/1999/xlink" x="0px" y="0px"
	 viewBox="0 0 512 512" style="enable-background:new 0 0 512 512;" xml:space="preserve">
<g>
	<g>
		<path d="M0,0v512h512V0H0z M482,482H30V30h452V482z"/>
	</g>
</g>
<g>
	<g>
		<path d="M61,61v390h390V61H61z M91,421v-46.698l76.125-121.801L293.5,421H91z M421,421h-90l-33.75-45L346,311l75,100V421z
			 M421,361l-75-100l-67.5,90L164.875,199.499L91,317.698V91h330V361z"/>
	</g>
</g>
<g>
	<g>
		<path d="M331,121c-33.084,0-60,26.916-60,60s26.916,60,60,60s60-26.916,60-60S364.084,121,331,121z M331,211
			c-16.542,0-30-13.458-30-30s13.458-30,30-30s30,13.458,30,30S347.542,211,331,211z"/>
	</g>
</g>
<g>
</g>
<g>
</g>
<g>
</g>
<g>
</g>
<g>
</g>
<g>
</g>
<g>
</g>
<g>
</g>
<g>
</g>
<g>
</g>
<g>
</g>
<g>
</g>
<g>
</g>
<g>
</g>
<g>
</g>
</svg>
