<?xml version="1.0" encoding="iso-8859-1"?>
<!-- Generator: Adobe Illustrator 19.0.0, SVG Export Plug-In . SVG Version: 6.00 Build 0)  -->
<svg version="1.1" id="Capa_1" xmlns="http://www.w3.org/2000/svg" xmlns:xlink="http://www.w3.org/1999/xlink" x="0px" y="0px"
	 viewBox="0 0 512 512" style="enable-background:new 0 0 512 512;" xml:space="preserve">
<g>
	<g>
		<path d="M341.603,234.52l30.492-30.492c37.288,13.102,79.946,4.452,109.135-24.737c31.397-31.396,39.637-79.395,20.507-119.44
			l-9.137-19.127l-64.368,64.368l-21.199-21.199l64.368-64.368l-19.127-9.137C412.229-8.741,364.23-0.5,332.835,30.895
			c-29.54,29.54-37.747,72.453-24.63,109.429l-51.821,51.82l-96.176-95.263V51.479L57.667,0.088L0,57.754l51.329,103.288h45.531
			l95.869,94.757l-52.255,52.256c-36.975-13.116-79.888-4.91-109.428,24.63c-31.396,31.396-39.636,79.395-20.508,119.44
			l9.137,19.128l64.368-64.369l21.199,21.199l-64.368,64.369l19.128,9.137c14.394,6.876,29.811,10.215,45.119,10.214
			c27.282-0.001,54.21-10.611,74.321-30.722c29.461-29.461,37.706-72.226,24.737-109.135l31.429-31.428l170.396,171.394L512,405.915
			L341.603,234.52z M354.034,52.094c16.843-16.843,40.527-24.48,63.608-21.209l-53.009,53.008l63.599,63.599l53.008-53.009
			c3.248,22.926-4.256,46.655-21.209,63.608c-29.224,29.223-76.774,29.222-105.997,0C324.811,128.869,324.811,81.318,354.034,52.094
			z M322.995,167.931c6.006,8.021,13.15,15.208,21.427,21.371c-28.988,28.508-19.304,18.904-45.438,45.038l-21.3-21.098
			L322.995,167.931z M158.242,459.882c-16.954,16.953-40.679,24.454-63.608,21.208l53.008-53.008l-63.599-63.599l-53.008,53.009
			c-3.248-22.927,4.256-46.656,21.208-63.608c29.223-29.224,76.773-29.223,105.997,0
			C187.465,383.108,187.465,430.659,158.242,459.882z M189.453,344.273c-3.01-4.043-6.344-7.921-10.012-11.589
			c-3.599-3.599-7.399-6.874-11.361-9.84l45.97-45.971l21.323,21.076C209.457,323.87,219.238,314.008,189.453,344.273z
			 M109.176,131.061H69.909L36.44,63.713l27.13-27.131l66.656,33.406v39.396L277.784,255.54l-21.21,21.211L109.176,131.061z
			 M256.806,319.319c26.718-27.225,29.171-29.818,63.598-63.598l20.938,21.061l-63.598,63.598L256.806,319.319z M298.882,361.64
			l63.598-63.598l107.184,107.81l-63.599,63.599L298.882,361.64z"/>
	</g>
</g>
<g>
</g>
<g>
</g>
<g>
</g>
<g>
</g>
<g>
</g>
<g>
</g>
<g>
</g>
<g>
</g>
<g>
</g>
<g>
</g>
<g>
</g>
<g>
</g>
<g>
</g>
<g>
</g>
<g>
</g>
</svg>
