<?xml version="1.0" encoding="iso-8859-1"?>
<!-- Generator: Adobe Illustrator 19.0.0, SVG Export Plug-In . SVG Version: 6.00 Build 0)  -->
<svg version="1.1" id="Capa_1" xmlns="http://www.w3.org/2000/svg" xmlns:xlink="http://www.w3.org/1999/xlink" x="0px" y="0px"
	 viewBox="0 0 512 512" style="enable-background:new 0 0 512 512;" xml:space="preserve">
<g>
	<g>
		<path d="M256,0C115.03,0,0,115.05,0,256c0,140.97,115.05,256,256,256c140.97,0,256-115.05,256-256C512,115.03,396.95,0,256,0z
			 M256,482C131.383,482,30,380.617,30,256S131.383,30,256,30s226,101.383,226,226S380.617,482,256,482z"/>
	</g>
</g>
<g>
	<g>
		<path d="M256,151c-57.897,0-105,47.103-105,105c0,57.897,47.103,105,105,105c57.897,0,105-47.103,105-105
			C361,198.103,313.897,151,256,151z M256,331c-41.355,0-75-33.645-75-75c0-41.355,33.645-75,75-75s75,33.645,75,75
			S297.355,331,256,331z"/>
	</g>
</g>
<g>
	<g>
		<path d="M256,211c-24.813,0-45,20.187-45,45s20.187,45,45,45s45-20.187,45-45S280.813,211,256,211z M256,271
			c-8.271,0-15-6.729-15-15s6.729-15,15-15s15,6.729,15,15S264.271,271,256,271z"/>
	</g>
</g>
<g>
</g>
<g>
</g>
<g>
</g>
<g>
</g>
<g>
</g>
<g>
</g>
<g>
</g>
<g>
</g>
<g>
</g>
<g>
</g>
<g>
</g>
<g>
</g>
<g>
</g>
<g>
</g>
<g>
</g>
</svg>
