<?xml version="1.0" encoding="iso-8859-1"?>
<!-- Generator: Adobe Illustrator 19.0.0, SVG Export Plug-In . SVG Version: 6.00 Build 0)  -->
<svg version="1.1" id="Capa_1" xmlns="http://www.w3.org/2000/svg" xmlns:xlink="http://www.w3.org/1999/xlink" x="0px" y="0px"
	 viewBox="0 0 512 512" style="enable-background:new 0 0 512 512;" xml:space="preserve">
<g>
	<g>
		<path d="M451,61V0h-90v61H151V0H61v61H0c0,6.796,0,440.306,0,451h512c0-11.364,0-444.205,0-451H451z M391,30h30v91h-30V30z M91,30
			h30v91H91V30z M482,482H30V211h452V482z M482,181H30V91h31v60h90V91h210v60h90V91h31V181z"/>
	</g>
</g>
<g>
	<g>
		<path d="M61,241v90h90v-90H61z M121,301H91v-30h30V301z"/>
	</g>
</g>
<g>
	<g>
		<path d="M61,361v90h90v-90H61z M121,421H91v-30h30V421z"/>
	</g>
</g>
<g>
	<g>
		<path d="M211,241v90h90v-90H211z M271,301h-30v-30h30V301z"/>
	</g>
</g>
<g>
	<g>
		<path d="M211,361v90h90v-90H211z M271,421h-30v-30h30V421z"/>
	</g>
</g>
<g>
	<g>
		<path d="M361,241v90h90v-90H361z M421,301h-30v-30h30V301z"/>
	</g>
</g>
<g>
	<g>
		<path d="M361,361v90h90v-90H361z M421,421h-30v-30h30V421z"/>
	</g>
</g>
<g>
</g>
<g>
</g>
<g>
</g>
<g>
</g>
<g>
</g>
<g>
</g>
<g>
</g>
<g>
</g>
<g>
</g>
<g>
</g>
<g>
</g>
<g>
</g>
<g>
</g>
<g>
</g>
<g>
</g>
</svg>
