<?xml version="1.0" encoding="iso-8859-1"?>
<!-- Generator: Adobe Illustrator 19.0.0, SVG Export Plug-In . SVG Version: 6.00 Build 0)  -->
<svg version="1.1" id="Capa_1" xmlns="http://www.w3.org/2000/svg" xmlns:xlink="http://www.w3.org/1999/xlink" x="0px" y="0px"
	 viewBox="0 0 512 512" style="enable-background:new 0 0 512 512;" xml:space="preserve">
<g>
	<g>
		<path d="M256,301c-24.813,0-45,20.187-45,45c0,19.555,12.541,36.228,30,42.42V452h30v-63.58c17.459-6.192,30-22.865,30-42.42
			C301,321.187,280.813,301,256,301z M256,361c-8.271,0-15-6.729-15-15s6.729-15,15-15s15,6.729,15,15S264.271,361,256,361z"/>
	</g>
</g>
<g>
	<g>
		<path d="M421,241v-76C421,74.019,346.981,0,256,0S91,74.019,91,165v76H61v271h390V241H421z M121,165c0-74.439,60.561-135,135-135
			s135,60.561,135,135v76h-30v-76c0-57.897-47.103-105-105-105c-57.897,0-105,47.103-105,105v76h-30V165z M331,165v76H181v-76
			c0-41.355,33.645-75,75-75S331,123.645,331,165z M421,482H91V271h330V482z"/>
	</g>
</g>
<g>
</g>
<g>
</g>
<g>
</g>
<g>
</g>
<g>
</g>
<g>
</g>
<g>
</g>
<g>
</g>
<g>
</g>
<g>
</g>
<g>
</g>
<g>
</g>
<g>
</g>
<g>
</g>
<g>
</g>
</svg>
