<?xml version="1.0" encoding="iso-8859-1"?>
<!-- Generator: Adobe Illustrator 19.0.0, SVG Export Plug-In . SVG Version: 6.00 Build 0)  -->
<svg version="1.1" id="Capa_1" xmlns="http://www.w3.org/2000/svg" xmlns:xlink="http://www.w3.org/1999/xlink" x="0px" y="0px"
	 viewBox="0 0 512 512" style="enable-background:new 0 0 512 512;" xml:space="preserve">
<g>
	<g>
		<path d="M355.271,91l-30-60H186.729l-30,60H0v390h512V91H355.271z M482,451H30V241h98.722c-4.994,14.082-7.722,29.227-7.722,45
			c0,74.439,60.561,135,135,135s135-60.561,135-135c0-15.773-2.728-30.918-7.722-45H482V451z M151,286c0-57.897,47.103-105,105-105
			c57.897,0,105,47.103,105,105c0,57.897-47.103,105-105,105C198.103,391,151,343.897,151,286z M482,211H368.194
			c-24.247-36.154-65.487-60-112.194-60c-46.707,0-87.947,23.846-112.194,60H30v-90h145.271l30-60H306.73l30,60H482V211z"/>
	</g>
</g>
<g>
	<g>
		<path d="M256,211c-41.355,0-75,33.645-75,75s33.645,75,75,75c41.355,0,75-33.645,75-75C331,244.645,297.355,211,256,211z M256,331
			c-24.813,0-45-20.187-45-45s20.187-45,45-45s45,20.187,45,45S280.813,331,256,331z"/>
	</g>
</g>
<g>
	<g>
		<rect x="421" y="151" width="30" height="30"/>
	</g>
</g>
<g>
</g>
<g>
</g>
<g>
</g>
<g>
</g>
<g>
</g>
<g>
</g>
<g>
</g>
<g>
</g>
<g>
</g>
<g>
</g>
<g>
</g>
<g>
</g>
<g>
</g>
<g>
</g>
<g>
</g>
</svg>
