<?xml version="1.0" encoding="utf-8"?>
<!-- Generator: Adobe Illustrator 22.0.1, SVG Export Plug-In . SVG Version: 6.00 Build 0)  -->
<svg version="1.1" id="Capa_1" xmlns="http://www.w3.org/2000/svg" xmlns:xlink="http://www.w3.org/1999/xlink" x="0px" y="0px"
	 viewBox="0 0 512 512" style="enable-background:new 0 0 512 512;" xml:space="preserve">
<style type="text/css">
	.st0{fill:none;}
</style>
<g>
	<g>
		<path d="M397,256L210,90.7v107.1H0v116.2h210v107.1L397,256z M23.2,290.9v-69.7h210v-78.8L361.9,256L233.2,369.7v-78.8H23.2z"/>
	</g>
</g>
<polygon class="st0" points="348.2,290.9 348.2,369.7 476.9,256 348.2,142.3 348.2,221.1 325,221.1 325,290.9 "/>
<polygon points="512,256 325,90.7 325,159 325,197.9 325,221.1 348.2,221.1 348.2,142.3 476.9,256 348.2,369.7 348.2,290.9 
	325,290.9 325,314.1 325,336 325,421.3 "/>
</svg>
