<svg id="Layer_1" data-name="Layer 1" xmlns="http://www.w3.org/2000/svg" viewBox="0 0 608 148"><defs><style>.cls-1,.cls-2{fill:#fff;}.cls-1{opacity:0.6;}</style></defs><title>logo</title><circle class="cls-1" cx="95.2" cy="41.89" r="15.14"/><path class="cls-1" d="M95.2,61.65c-13.82,0-25,20.86-25,46.6h50C120.22,82.51,109,61.65,95.2,61.65Z"/><path class="cls-2" d="M167.54,99.23V92.09c0-1.5.66-2.16,2.16-2.16h5.94V69.77H169.7c-1.5,0-2.16-.66-2.16-2.16V60.35c0-1.5.66-2.16,2.16-2.16h25.56c1.5,0,2.16.66,2.16,2.16v7.26c0,1.5-.66,2.16-2.16,2.16h-5.82V89.93h5.82c1.5,0,2.16.66,2.16,2.16v7.14c0,1.5-.66,2.16-2.16,2.16H169.7C168.2,101.39,167.54,100.73,167.54,99.23Z"/><path class="cls-2" d="M207,101.39c-1.5,0-2.16-.66-2.16-2.16V60.35c0-1.5.66-2.16,2.16-2.16h6.24a4.09,4.09,0,0,1,3.54,1.62l11.64,13.32V60.35c0-1.5.66-2.16,2.16-2.16h9c1.5,0,2.16.66,2.16,2.16V99.23c0,1.5-.66,2.16-2.16,2.16h-9c-1.5,0-2.16-.66-2.16-2.16V91.85L218.12,79.43v19.8c0,1.5-.66,2.16-2.16,2.16Z"/><path class="cls-2" d="M260.66,101.39c-1.5,0-2.16-.66-2.16-2.16V69.77h-8.82c-1.5,0-2.16-.66-2.16-2.16V60.35c0-1.5.66-2.16,2.16-2.16h31.68c1.5,0,2.16.66,2.16,2.16v7.26c0,1.5-.66,2.16-2.16,2.16h-8.82V99.23c0,1.5-.66,2.16-2.16,2.16Z"/><path class="cls-2" d="M291.5,101.39c-1.5,0-2.16-.66-2.16-2.16V60.35c0-1.5.66-2.16,2.16-2.16h27.84c1.5,0,2.16.66,2.16,2.16v7c0,1.5-.66,2.16-2.16,2.16H302.78v4.62h11.7c1.5,0,2.16.66,2.16,2.16v6.42c0,1.5-.66,2.16-2.16,2.16h-11.7v5.16h16.56c1.5,0,2.16.66,2.16,2.16v7c0,1.5-.66,2.16-2.16,2.16Z"/><path class="cls-2" d="M330.74,101.39c-1.5,0-2.16-.66-2.16-2.16V60.35c0-1.5.66-2.16,2.16-2.16h20c9,0,11.82,4.08,11.82,10V71c0,3.36-.84,5.76-3.36,6.84,4.38.48,7.26,3.66,7.26,8.7V99.23c0,1.5-.66,2.16-2.16,2.16H355c-1.5,0-2.16-.66-2.16-2.16V90.05c0-1.8-.6-2.58-2.28-2.58h-8.4V99.23c0,1.5-.66,2.16-2.16,2.16Zm11.4-24.72h4.5c2.1,0,2.64-1.2,2.64-2.82v-2c0-1.62-.54-2.82-2.64-2.82h-4.5Z"/><path class="cls-2" d="M371.42,83.81v-8c0-1.5.66-2.16,2.16-2.16h16.08c1.5,0,2.16.6,2.16,2.16v8c0,1.56-.66,2.16-2.16,2.16H373.58C372.08,86,371.42,85.37,371.42,83.81Z"/><path class="cls-2" d="M408.32,101.39a2.82,2.82,0,0,1-3.06-2l-5.88-14.7c-1.44-3.6-1.92-4.74-1.92-8.52V60.35c0-1.5.66-2.16,2.16-2.16h9.54c1.5,0,2.34.66,2.34,2.16V76.91a7.44,7.44,0,0,0,.48,2.46l2.82,8.4c.24.78.48,1,1.14,1h.66c.66,0,.9-.24,1.14-1l2.82-8.46a7.44,7.44,0,0,0,.48-2.46V60.35c0-1.5.66-2.16,2.16-2.16h9.42c1.56,0,2.16.66,2.16,2.16V76.19c0,3.78-.48,4.92-1.92,8.52L427,99.41a2.82,2.82,0,0,1-3.06,2Z"/><path class="cls-2" d="M441.2,99.23V92.09c0-1.5.66-2.16,2.16-2.16h5.94V69.77h-5.94c-1.5,0-2.16-.66-2.16-2.16V60.35c0-1.5.66-2.16,2.16-2.16h25.56c1.5,0,2.16.66,2.16,2.16v7.26c0,1.5-.66,2.16-2.16,2.16H463.1V89.93h5.82c1.5,0,2.16.66,2.16,2.16v7.14c0,1.5-.66,2.16-2.16,2.16H443.36C441.86,101.39,441.2,100.73,441.2,99.23Z"/><path class="cls-2" d="M480.62,101.39c-1.5,0-2.16-.66-2.16-2.16V60.35c0-1.5.66-2.16,2.16-2.16h27.84c1.5,0,2.16.66,2.16,2.16v7c0,1.5-.66,2.16-2.16,2.16H491.9v4.62h11.7c1.5,0,2.16.66,2.16,2.16v6.42c0,1.5-.66,2.16-2.16,2.16H491.9v5.16h16.56c1.5,0,2.16.66,2.16,2.16v7c0,1.5-.66,2.16-2.16,2.16Z"/><path class="cls-2" d="M557.66,58.19c1.5,0,2.16.66,2.16,2.16V83.63a18.67,18.67,0,0,1-1.08,7.44l-3,8.16c-.42,1.2-1.14,2.16-2.4,2.16h-8a2.59,2.59,0,0,1-2.76-1.8l-2.76-9.78c-.24-.78-.6-1-1.08-1h-.54c-.48,0-.84.24-1.08,1l-2.82,9.78a2.41,2.41,0,0,1-2.52,1.8h-7.92a2.8,2.8,0,0,1-2.64-2.16l-3-8.28a18.67,18.67,0,0,1-1.08-7.44V60.35c0-1.5.66-2.16,2.16-2.16h9.24c1.5,0,2.16.66,2.16,2.16V82.43l3.48-7.56A3.06,3.06,0,0,1,537.38,73h2.52a3.06,3.06,0,0,1,3.18,1.86l3.48,7.56V60.35c0-1.5.6-2.16,2.16-2.16Z"/><circle class="cls-2" cx="73.2" cy="54.89" r="15.14"/><path class="cls-2" d="M73.2,74.65c-13.82,0-25,20.86-25,46.6h50C98.22,95.51,87,74.65,73.2,74.65Z"/></svg>